<svg width="620" height="400" viewBox="0 0 620 400" fill="none" xmlns="http://www.w3.org/2000/svg">
<path d="M0 30C0 13.4315 13.4315 0 30 0H590C606.569 0 620 13.4315 620 30V370C620 386.569 606.569 400 590 400H30C13.4315 400 0 386.569 0 370V30Z" fill="#F84246"/>
<text fill="black" xml:space="preserve" style="white-space: pre" font-family="Mea Culpa" font-size="60" letter-spacing="0em"><tspan x="129" y="200">Yaseen</tspan></text>
<text fill="black" xml:space="preserve" style="white-space: pre" font-family="Knewave" font-size="26" letter-spacing="0.25em"><tspan x="242" y="337.192">#00211</tspan></text>
<path d="M239 44.0238V77.0238H245.5V56.5238L260 77.0238H267.5L245.5 44.0238H239Z" fill="black"/>
<path d="M267.5 44.0238H261.5V61.5238L267.5 68.5238V44.0238Z" fill="black"/>
<path d="M302.5 44.0238H278.5V77.0238H302.5V71.5238H286.5V50.5238H302.5V44.0238Z" fill="black"/>
<path d="M302.5 64.0238V58.5238H291.5V64.0238H302.5Z" fill="black"/>
<path d="M337.5 44.0238H311V50.5238H337.5V44.0238Z" fill="black"/>
<path d="M327.5 54.5238H320.5V77.0238H327.5V54.5238Z" fill="black"/>
<path d="M353.5 44.0238H346V77.0238H353.5V44.0238Z" fill="black"/>
<path d="M375.5 44.0238H364V77.0238H375.5C382 76.4999 393 76 393.5 61.5238C394.011 46.7326 381.5 43.6904 375.5 44.0238Z" fill="black"/>
<path d="M239 44.0238V77.0238H245.5V56.5238L260 77.0238H267.5L245.5 44.0238H239Z" stroke="black" stroke-width="0.4"/>
<path d="M267.5 44.0238H261.5V61.5238L267.5 68.5238V44.0238Z" stroke="black" stroke-width="0.4"/>
<path d="M302.5 44.0238H278.5V77.0238H302.5V71.5238H286.5V50.5238H302.5V44.0238Z" stroke="black" stroke-width="0.4"/>
<path d="M302.5 64.0238V58.5238H291.5V64.0238H302.5Z" stroke="black" stroke-width="0.4"/>
<path d="M337.5 44.0238H311V50.5238H337.5V44.0238Z" stroke="black" stroke-width="0.4"/>
<path d="M327.5 54.5238H320.5V77.0238H327.5V54.5238Z" stroke="black" stroke-width="0.4"/>
<path d="M353.5 44.0238H346V77.0238H353.5V44.0238Z" stroke="black" stroke-width="0.4"/>
<path d="M375.5 44.0238H364V77.0238H375.5C382 76.4999 393 76 393.5 61.5238C394.011 46.7326 381.5 43.6904 375.5 44.0238Z" stroke="black" stroke-width="0.4"/>
</svg>
